# xmcd
# 
# Track frame offsets:
#     150
#     16825
#     35008
#     55332
#     65383
#     78952
#     103604
#     121790
#     136376
#     150985
# 
# Disc length: 2627
# 
# Revision: 0
# Processed by: cddbd v1.5.2PL0 Copyright (c) Steve Scherf et al.
# Submitted via: fre:ac v1.0.17
# 
DISCID=740a410a
DTITLE=Anthony Moser - Transhuman Blues
DYEAR=2012
DGENRE=Blues
TTITLE0=One Percent
TTITLE1=Got It All
TTITLE2=Transhuman Blues
TTITLE3=Morning Song
TTITLE4=Back and Forth
TTITLE5=Bitter Old Man
TTITLE6=Google Is Listening
TTITLE7=Test II
TTITLE8=Blue Darkness
TTITLE9=That Old Feeling Is Gone
EXTD=www.mosermusic.com
EXTT0=
EXTT1=
EXTT2=
EXTT3=
EXTT4=
EXTT5=
EXTT6=
EXTT7=
EXTT8=
EXTT9=
PLAYORDER=
